<mxfile host="app.diagrams.net" modified="2024-03-18T15:06:50.823Z" agent="Mozilla/5.0 (Windows NT 10.0; Win64; x64) AppleWebKit/537.36 (KHTML, like Gecko) Chrome/122.0.0.0 Safari/537.36" etag="xa1KWW1MpOY8DBJ-mSiM" version="24.0.2" type="device">
  <diagram name="Page-1" id="SDhyi46LmCofakgQcXXV">
    <mxGraphModel dx="1120" dy="434" grid="1" gridSize="10" guides="1" tooltips="1" connect="1" arrows="1" fold="1" page="1" pageScale="1" pageWidth="827" pageHeight="1169" math="0" shadow="0">
      <root>
        <mxCell id="0" />
        <mxCell id="1" parent="0" />
        <mxCell id="KL_IRpTrwZRiDiEXZhVM-1" value="A" style="ellipse;whiteSpace=wrap;html=1;" vertex="1" parent="1">
          <mxGeometry x="160" y="150" width="110" height="70" as="geometry" />
        </mxCell>
        <mxCell id="KL_IRpTrwZRiDiEXZhVM-4" value="B" style="ellipse;whiteSpace=wrap;html=1;" vertex="1" parent="1">
          <mxGeometry x="354" y="145" width="120" height="80" as="geometry" />
        </mxCell>
        <mxCell id="KL_IRpTrwZRiDiEXZhVM-9" value="" style="endArrow=classic;html=1;rounded=0;exitX=1;exitY=0.357;exitDx=0;exitDy=0;exitPerimeter=0;entryX=0.05;entryY=0.4;entryDx=0;entryDy=0;entryPerimeter=0;" edge="1" parent="1" source="KL_IRpTrwZRiDiEXZhVM-1" target="KL_IRpTrwZRiDiEXZhVM-4">
          <mxGeometry width="50" height="50" relative="1" as="geometry">
            <mxPoint x="390" y="250" as="sourcePoint" />
            <mxPoint x="440" y="200" as="targetPoint" />
          </mxGeometry>
        </mxCell>
        <mxCell id="KL_IRpTrwZRiDiEXZhVM-10" value="" style="endArrow=classic;html=1;rounded=0;exitX=-0.025;exitY=0.638;exitDx=0;exitDy=0;exitPerimeter=0;entryX=1.009;entryY=0.614;entryDx=0;entryDy=0;entryPerimeter=0;" edge="1" parent="1" source="KL_IRpTrwZRiDiEXZhVM-4" target="KL_IRpTrwZRiDiEXZhVM-1">
          <mxGeometry width="50" height="50" relative="1" as="geometry">
            <mxPoint x="280" y="185" as="sourcePoint" />
            <mxPoint x="370" y="187" as="targetPoint" />
          </mxGeometry>
        </mxCell>
        <mxCell id="KL_IRpTrwZRiDiEXZhVM-11" value="" style="endArrow=classic;html=1;rounded=0;exitX=1;exitY=0;exitDx=0;exitDy=0;entryX=0.245;entryY=-0.014;entryDx=0;entryDy=0;entryPerimeter=0;elbow=vertical;" edge="1" parent="1" source="KL_IRpTrwZRiDiEXZhVM-1" target="KL_IRpTrwZRiDiEXZhVM-1">
          <mxGeometry width="50" height="50" relative="1" as="geometry">
            <mxPoint x="390" y="250" as="sourcePoint" />
            <mxPoint x="190" y="110" as="targetPoint" />
            <Array as="points">
              <mxPoint x="230" y="100" />
            </Array>
          </mxGeometry>
        </mxCell>
        <mxCell id="KL_IRpTrwZRiDiEXZhVM-14" value="" style="endArrow=classic;html=1;rounded=0;exitX=0.667;exitY=0.038;exitDx=0;exitDy=0;entryX=0;entryY=0;entryDx=0;entryDy=0;exitPerimeter=0;" edge="1" parent="1" source="KL_IRpTrwZRiDiEXZhVM-4" target="KL_IRpTrwZRiDiEXZhVM-4">
          <mxGeometry width="50" height="50" relative="1" as="geometry">
            <mxPoint x="264" y="170" as="sourcePoint" />
            <mxPoint x="197" y="159" as="targetPoint" />
            <Array as="points">
              <mxPoint x="400" y="100" />
            </Array>
          </mxGeometry>
        </mxCell>
        <mxCell id="KL_IRpTrwZRiDiEXZhVM-15" value="0" style="text;html=1;align=center;verticalAlign=middle;resizable=0;points=[];autosize=1;strokeColor=none;fillColor=none;" vertex="1" parent="1">
          <mxGeometry x="300" y="140" width="30" height="30" as="geometry" />
        </mxCell>
        <mxCell id="KL_IRpTrwZRiDiEXZhVM-16" value="1" style="text;html=1;align=center;verticalAlign=middle;resizable=0;points=[];autosize=1;strokeColor=none;fillColor=none;" vertex="1" parent="1">
          <mxGeometry x="215" y="48" width="30" height="30" as="geometry" />
        </mxCell>
        <mxCell id="KL_IRpTrwZRiDiEXZhVM-17" value="0" style="text;html=1;align=center;verticalAlign=middle;resizable=0;points=[];autosize=1;strokeColor=none;fillColor=none;" vertex="1" parent="1">
          <mxGeometry x="295" y="198" width="30" height="30" as="geometry" />
        </mxCell>
        <mxCell id="KL_IRpTrwZRiDiEXZhVM-18" value="1" style="text;html=1;align=center;verticalAlign=middle;resizable=0;points=[];autosize=1;strokeColor=none;fillColor=none;" vertex="1" parent="1">
          <mxGeometry x="385" y="58" width="30" height="30" as="geometry" />
        </mxCell>
      </root>
    </mxGraphModel>
  </diagram>
</mxfile>
